<mxfile host="app.diagrams.net" modified="2020-09-26T01:58:44.174Z" agent="5.0 (Windows NT 10.0; Win64; x64) AppleWebKit/537.36 (KHTML, like Gecko) Chrome/85.0.4183.121 Safari/537.36" etag="Z4yk9P8CxlBiAWSgBIfQ" version="13.7.5" type="github">
  <diagram id="kgpKYQtTHZ0yAKxKKP6v" name="Page-1">
    <mxGraphModel dx="573" dy="542" grid="1" gridSize="10" guides="1" tooltips="1" connect="1" arrows="1" fold="1" page="1" pageScale="1" pageWidth="850" pageHeight="1100" math="0" shadow="0">
      <root>
        <mxCell id="0" />
        <mxCell id="1" parent="0" />
        <mxCell id="3nuBFxr9cyL0pnOWT2aG-1" value="FileUploadServcie" style="shape=umlLifeline;perimeter=lifelinePerimeter;container=1;collapsible=0;recursiveResize=0;rounded=0;shadow=0;strokeWidth=1;" parent="1" vertex="1">
          <mxGeometry x="70" y="80" width="150" height="480" as="geometry" />
        </mxCell>
        <mxCell id="3nuBFxr9cyL0pnOWT2aG-2" value="" style="points=[];perimeter=orthogonalPerimeter;rounded=0;shadow=0;strokeWidth=1;" parent="3nuBFxr9cyL0pnOWT2aG-1" vertex="1">
          <mxGeometry x="45" y="70" width="10" height="410" as="geometry" />
        </mxCell>
        <mxCell id="3nuBFxr9cyL0pnOWT2aG-3" value="open" style="verticalAlign=bottom;startArrow=oval;endArrow=block;startSize=8;shadow=0;strokeWidth=1;" parent="3nuBFxr9cyL0pnOWT2aG-1" target="3nuBFxr9cyL0pnOWT2aG-2" edge="1">
          <mxGeometry relative="1" as="geometry">
            <mxPoint x="-15" y="70" as="sourcePoint" />
          </mxGeometry>
        </mxCell>
        <mxCell id="3nuBFxr9cyL0pnOWT2aG-5" value="fileFinderService" style="shape=umlLifeline;perimeter=lifelinePerimeter;container=1;collapsible=0;recursiveResize=0;rounded=0;shadow=0;strokeWidth=1;" parent="1" vertex="1">
          <mxGeometry x="300" y="80" width="140" height="390" as="geometry" />
        </mxCell>
        <mxCell id="3nuBFxr9cyL0pnOWT2aG-6" value="" style="points=[];perimeter=orthogonalPerimeter;rounded=0;shadow=0;strokeWidth=1;" parent="3nuBFxr9cyL0pnOWT2aG-5" vertex="1">
          <mxGeometry x="45" y="70" width="10" height="320" as="geometry" />
        </mxCell>
        <mxCell id="TrINRlvzFbTdRWMSG5aw-12" value="file create&lt;br style=&quot;padding: 0px ; margin: 0px&quot;&gt;file click&lt;br style=&quot;padding: 0px ; margin: 0px&quot;&gt;file handler&lt;br style=&quot;padding: 0px ; margin: 0px&quot;&gt;next `fileListSubj`" style="rounded=0;whiteSpace=wrap;html=1;" vertex="1" parent="3nuBFxr9cyL0pnOWT2aG-5">
          <mxGeometry x="20" y="80" width="120" height="70" as="geometry" />
        </mxCell>
        <mxCell id="3nuBFxr9cyL0pnOWT2aG-8" value="open" style="verticalAlign=bottom;endArrow=block;entryX=0;entryY=0.429;shadow=0;strokeWidth=1;entryDx=0;entryDy=0;entryPerimeter=0;" parent="1" source="TrINRlvzFbTdRWMSG5aw-16" target="TrINRlvzFbTdRWMSG5aw-12" edge="1">
          <mxGeometry relative="1" as="geometry">
            <mxPoint x="275" y="160" as="sourcePoint" />
          </mxGeometry>
        </mxCell>
        <mxCell id="3nuBFxr9cyL0pnOWT2aG-9" value="subscribe" style="verticalAlign=bottom;endArrow=block;entryX=1;entryY=0;shadow=0;strokeWidth=1;" parent="1" source="3nuBFxr9cyL0pnOWT2aG-5" target="3nuBFxr9cyL0pnOWT2aG-4" edge="1">
          <mxGeometry relative="1" as="geometry">
            <mxPoint x="240" y="200" as="sourcePoint" />
          </mxGeometry>
        </mxCell>
        <mxCell id="3nuBFxr9cyL0pnOWT2aG-4" value="init()&lt;br&gt;`fileList$`&lt;br&gt;subscribe(중복)&lt;br&gt;upload() call" style="points=[];perimeter=orthogonalPerimeter;rounded=0;shadow=0;strokeWidth=1;labelBackgroundColor=none;html=1;" parent="1" vertex="1">
          <mxGeometry x="100" y="255" width="100" height="65" as="geometry" />
        </mxCell>
        <mxCell id="TrINRlvzFbTdRWMSG5aw-13" value="observable&lt;br&gt;`fileList$`" style="rounded=0;whiteSpace=wrap;html=1;" vertex="1" parent="1">
          <mxGeometry x="320" y="255" width="120" height="60" as="geometry" />
        </mxCell>
        <mxCell id="TrINRlvzFbTdRWMSG5aw-14" value="" style="endArrow=classic;html=1;exitX=0.907;exitY=1.017;exitDx=0;exitDy=0;exitPerimeter=0;entryX=0.907;entryY=-0.01;entryDx=0;entryDy=0;entryPerimeter=0;dashed=1;" edge="1" parent="1" source="TrINRlvzFbTdRWMSG5aw-12" target="TrINRlvzFbTdRWMSG5aw-13">
          <mxGeometry width="50" height="50" relative="1" as="geometry">
            <mxPoint x="460" y="220" as="sourcePoint" />
            <mxPoint x="440" y="255" as="targetPoint" />
          </mxGeometry>
        </mxCell>
        <mxCell id="TrINRlvzFbTdRWMSG5aw-15" value="upload api call&lt;br&gt;subscribe(중복)&lt;br&gt;next `uploadFileSubj`" style="rounded=0;whiteSpace=wrap;html=1;" vertex="1" parent="1">
          <mxGeometry x="100" y="370" width="130" height="60" as="geometry" />
        </mxCell>
        <mxCell id="TrINRlvzFbTdRWMSG5aw-16" value="by pass finder open" style="rounded=0;whiteSpace=wrap;html=1;" vertex="1" parent="1">
          <mxGeometry x="100" y="160" width="100" height="60" as="geometry" />
        </mxCell>
        <mxCell id="TrINRlvzFbTdRWMSG5aw-18" value="" style="endArrow=classic;html=1;" edge="1" parent="1" target="3nuBFxr9cyL0pnOWT2aG-4">
          <mxGeometry width="50" height="50" relative="1" as="geometry">
            <mxPoint x="110" y="220" as="sourcePoint" />
            <mxPoint x="110" y="250" as="targetPoint" />
          </mxGeometry>
        </mxCell>
        <mxCell id="TrINRlvzFbTdRWMSG5aw-19" value="init" style="text;html=1;strokeColor=none;fillColor=none;align=center;verticalAlign=middle;whiteSpace=wrap;rounded=0;" vertex="1" parent="1">
          <mxGeometry x="60" y="220" width="50" height="20" as="geometry" />
        </mxCell>
        <mxCell id="TrINRlvzFbTdRWMSG5aw-20" value="next" style="text;html=1;strokeColor=none;fillColor=none;align=center;verticalAlign=middle;whiteSpace=wrap;rounded=0;" vertex="1" parent="1">
          <mxGeometry x="430" y="230" width="40" height="20" as="geometry" />
        </mxCell>
        <mxCell id="TrINRlvzFbTdRWMSG5aw-21" value="" style="endArrow=classic;html=1;dashed=1;" edge="1" parent="1">
          <mxGeometry width="50" height="50" relative="1" as="geometry">
            <mxPoint x="180" y="320" as="sourcePoint" />
            <mxPoint x="180" y="370" as="targetPoint" />
          </mxGeometry>
        </mxCell>
        <mxCell id="TrINRlvzFbTdRWMSG5aw-22" value="upload" style="text;html=1;strokeColor=none;fillColor=none;align=center;verticalAlign=middle;whiteSpace=wrap;rounded=0;" vertex="1" parent="1">
          <mxGeometry x="180" y="330" width="40" height="20" as="geometry" />
        </mxCell>
        <mxCell id="TrINRlvzFbTdRWMSG5aw-27" value="&lt;font color=&quot;#000000&quot;&gt;observable&lt;br&gt;`uploadedFileInfos$`&lt;/font&gt;" style="rounded=0;whiteSpace=wrap;html=1;labelBackgroundColor=none;fontColor=#FF9999;" vertex="1" parent="1">
          <mxGeometry x="100" y="470" width="130" height="60" as="geometry" />
        </mxCell>
        <mxCell id="TrINRlvzFbTdRWMSG5aw-29" value="" style="endArrow=classic;html=1;dashed=1;fontColor=#FF9999;entryX=0.75;entryY=0;entryDx=0;entryDy=0;exitX=0.75;exitY=1;exitDx=0;exitDy=0;" edge="1" parent="1" source="TrINRlvzFbTdRWMSG5aw-15" target="TrINRlvzFbTdRWMSG5aw-27">
          <mxGeometry width="50" height="50" relative="1" as="geometry">
            <mxPoint x="210" y="430" as="sourcePoint" />
            <mxPoint x="260" y="380" as="targetPoint" />
          </mxGeometry>
        </mxCell>
        <mxCell id="TrINRlvzFbTdRWMSG5aw-30" value="next" style="text;html=1;strokeColor=none;fillColor=none;align=center;verticalAlign=middle;whiteSpace=wrap;rounded=0;" vertex="1" parent="1">
          <mxGeometry x="200" y="440" width="40" height="20" as="geometry" />
        </mxCell>
        <mxCell id="TrINRlvzFbTdRWMSG5aw-32" value="subscribe(중복)" style="verticalAlign=bottom;startArrow=oval;endArrow=block;startSize=8;shadow=0;strokeWidth=1;" edge="1" parent="1">
          <mxGeometry relative="1" as="geometry">
            <mxPoint x="100" y="530" as="sourcePoint" />
            <mxPoint x="20" y="530" as="targetPoint" />
          </mxGeometry>
        </mxCell>
      </root>
    </mxGraphModel>
  </diagram>
</mxfile>
